{"glyphs":{"0":{"ha":514,"x_min":0,"x_max":0,"o":"m 402 972 b 491 883 451 972 491 932 l 491 89 b 402 0 491 40 451 0 l 112 0 b 23 89 63 0 23 40 l 23 883 b 112 972 23 932 63 972 l 402 972 m 217 814 b 181 778 197 814 181 798 l 181 584 l 332 671 l 332 778 b 297 814 332 798 316 814 l 217 814 m 297 158 b 332 194 316 158 332 174 l 332 488 l 181 401 l 181 194 b 217 158 181 174 197 158 l 297 158 "},"1":{"ha":336,"x_min":0,"x_max":0,"o":"m 312 0 l 75 0 l 104 48 b 114 86 111 60 114 73 l 114 814 l 23 814 l 90 930 b 163 972 105 956 133 972 l 273 972 l 273 86 b 283 48 273 73 276 60 "},"2":{"ha":514,"x_min":0,"x_max":0,"o":"m 411 972 b 491 892 455 972 491 936 l 491 549 b 408 466 491 503 454 466 l 218 466 b 181 429 198 466 181 449 l 181 158 l 404 158 b 442 169 418 158 431 162 l 491 197 l 491 0 l 23 0 l 23 542 b 105 624 23 587 60 624 l 296 624 b 332 661 316 624 332 641 l 332 777 b 296 814 332 797 316 814 l 89 814 l 23 775 l 23 893 b 102 972 23 937 58 972 "},"3":{"ha":514,"x_min":0,"x_max":0,"o":"m 406 972 b 491 887 453 972 491 934 l 491 623 b 412 545 491 580 456 545 b 491 467 456 545 491 510 l 491 85 b 406 0 491 38 453 0 l 23 0 l 23 197 l 69 170 b 112 158 82 162 97 158 l 332 158 l 332 466 l 191 466 b 148 454 176 466 161 462 l 102 427 l 102 663 l 148 636 b 191 624 161 628 176 624 l 332 624 l 332 814 l 112 814 b 69 802 97 814 82 810 l 23 775 l 23 972 "},"4":{"ha":554,"x_min":0,"x_max":0,"o":"m 531 0 l 295 0 l 323 48 b 334 86 330 60 334 73 l 334 466 l 101 466 b 24 542 59 466 24 500 l 24 624 l 23 624 l 23 835 b 62 903 23 863 38 889 l 181 972 l 181 659 b 216 624 181 640 197 624 l 334 624 l 334 972 l 492 972 l 492 86 b 502 49 492 73 496 60 "},"5":{"ha":514,"x_min":0,"x_max":0,"o":"m 181 814 l 181 624 l 405 624 b 491 539 452 624 491 586 l 491 86 b 405 0 491 38 452 0 l 110 0 b 23 87 62 0 23 39 l 23 405 l 141 337 b 181 267 166 322 181 296 l 181 192 b 215 158 181 174 197 158 l 298 158 b 332 193 317 158 332 174 l 332 427 b 293 466 332 448 315 466 l 23 466 l 23 972 l 491 972 l 491 775 l 444 803 b 403 814 431 810 417 814 "},"6":{"ha":514,"x_min":0,"x_max":0,"o":"m 491 972 l 491 775 l 444 802 b 402 814 431 810 417 814 l 217 814 b 181 778 197 814 181 798 l 181 624 l 407 624 b 491 540 453 624 491 587 l 491 84 b 407 0 491 38 453 0 l 107 0 b 23 84 61 0 23 38 l 23 886 b 109 972 23 934 62 972 m 332 432 b 299 466 332 451 317 466 l 222 466 b 181 425 200 466 181 448 l 181 192 b 215 158 181 174 197 158 l 299 158 b 332 192 317 158 332 174 l 332 432 "},"7":{"ha":514,"x_min":0,"x_max":0,"o":"m 486 958 l 261 203 l 230 99 b 238 36 224 78 227 55 l 260 0 l 23 0 l 57 57 b 65 75 60 63 63 69 l 285 814 l 112 814 b 70 802 97 814 82 810 l 23 775 l 23 972 l 491 972 l 491 971 "},"8":{"ha":514,"x_min":0,"x_max":0,"o":"m 409 972 b 491 891 454 972 491 936 l 491 623 b 412 545 491 580 456 545 b 491 467 456 545 491 510 l 491 82 b 409 0 491 37 454 0 l 105 0 b 23 82 60 0 23 37 l 23 158 l 24 158 l 24 467 b 102 545 24 510 59 545 b 24 623 59 545 24 580 l 24 814 l 23 814 l 23 891 b 105 972 23 936 60 972 m 182 198 b 222 158 182 176 200 158 l 292 158 b 332 198 314 158 332 176 l 332 426 b 292 466 332 448 314 466 l 222 466 b 182 426 200 466 182 448 l 182 198 m 292 624 b 332 664 314 624 332 642 l 332 774 b 292 814 332 796 314 814 l 222 814 b 182 774 200 814 182 796 l 182 664 b 222 624 182 642 200 624 l 292 624 "},"9":{"ha":514,"x_min":0,"x_max":0,"o":"m 408 972 b 491 890 454 972 491 935 l 491 513 b 477 420 491 482 486 450 l 412 203 l 381 99 b 389 36 375 78 378 55 l 411 0 l 174 0 l 208 57 b 216 75 211 63 214 69 l 332 466 l 105 466 b 23 548 60 466 23 503 l 23 890 b 105 972 23 935 60 972 m 301 624 b 332 656 318 624 332 638 l 332 782 b 301 814 332 800 318 814 l 213 814 b 181 782 196 814 181 800 l 181 656 b 213 624 181 638 196 624 l 301 624 "},"\u0000":{"ha":694,"x_min":0,"x_max":0,"o":""},"\n":{"ha":0,"x_min":0,"x_max":0,"o":""},"\r":{"ha":0,"x_min":0,"x_max":0,"o":""}," ":{"ha":328,"x_min":0,"x_max":0,"o":""},"!":{"ha":283,"x_min":0,"x_max":0,"o":"m 62 0 l 62 158 l 221 158 l 221 0 m 260 972 l 231 925 b 221 885 224 913 221 899 l 221 615 b 211 276 221 516 217 375 l 72 276 l 72 276 b 62 615 65 376 62 516 l 62 885 b 51 925 62 899 58 913 l 23 972 "},"\"":{"ha":390,"x_min":0,"x_max":0,"o":"m 23 972 l 164 972 l 155 659 l 32 659 m 366 972 l 357 659 l 234 659 l 225 972 "},"#":{"ha":889,"x_min":0,"x_max":0,"o":"m 736 659 l 863 659 l 863 501 l 677 501 l 638 393 l 863 393 l 863 235 l 579 235 l 531 105 b 538 31 522 80 525 53 l 556 0 l 320 0 l 355 59 b 362 73 357 64 360 68 l 421 235 l 283 235 l 235 105 b 241 31 226 80 228 53 l 260 0 l 23 0 l 58 59 b 65 73 61 64 63 68 l 124 235 l 25 235 l 25 393 l 183 393 l 222 501 l 25 501 l 25 659 l 280 659 l 358 871 b 352 939 367 893 364 918 l 332 972 l 569 972 l 534 912 b 527 899 531 908 529 904 l 439 659 l 577 659 l 655 871 b 649 939 663 893 661 918 l 629 972 l 866 972 l 830 912 b 824 899 828 908 826 904 m 519 501 l 381 501 l 341 393 l 479 393 "},"$":{"ha":514,"x_min":0,"x_max":0,"o":"m 458 972 b 491 939 476 972 491 957 l 491 775 l 432 809 b 416 814 427 812 422 814 l 181 814 l 181 624 l 464 624 b 491 598 479 624 491 612 l 491 80 b 411 0 491 36 455 0 l 336 0 l 336 -95 l 178 -95 l 178 0 l 56 0 b 23 33 38 0 23 15 l 23 296 b 39 323 23 307 29 317 l 181 405 l 181 158 l 332 158 l 332 466 l 60 466 b 23 503 39 466 23 482 l 23 893 b 103 972 23 937 59 972 l 178 972 l 178 1067 l 336 1067 l 336 972 l 458 972 "},"%":{"ha":1069,"x_min":0,"x_max":0,"o":"m 473 105 b 480 31 464 80 467 53 l 498 0 l 262 0 l 297 59 b 304 73 300 64 302 68 l 597 871 b 591 939 605 893 603 918 l 571 972 l 808 972 l 772 912 b 766 899 770 908 768 904 l 473 105 m 457 724 b 240 506 457 604 360 506 b 23 724 120 506 23 604 l 23 755 b 240 972 23 875 120 972 b 457 755 360 972 457 875 l 457 724 m 320 755 b 240 835 320 799 284 835 b 161 755 196 835 161 799 l 161 724 b 240 644 161 680 196 644 b 320 724 284 644 320 680 m 829 466 b 1046 249 949 466 1046 368 l 1046 217 b 829 0 1046 97 949 0 b 612 217 710 0 612 97 l 612 249 b 829 466 612 368 710 466 m 909 249 b 829 328 909 293 873 328 b 750 249 785 328 750 293 l 750 217 b 829 138 750 173 785 138 b 909 217 873 138 909 173 "},"&":{"ha":593,"x_min":0,"x_max":0,"o":"m 491 88 b 502 47 491 74 495 59 l 530 0 l 332 0 l 332 78 b 254 0 332 35 297 0 l 101 0 b 24 77 59 0 24 35 l 24 467 b 102 545 24 510 59 545 b 24 623 59 545 24 580 l 24 814 l 23 814 l 23 888 b 107 972 23 935 61 972 l 491 972 l 491 814 l 182 814 l 182 624 l 332 624 l 332 719 l 491 719 l 491 624 l 570 624 l 570 466 l 491 466 m 332 466 l 182 466 l 182 158 l 332 158 "},"'":{"ha":188,"x_min":0,"x_max":0,"o":"m 164 972 l 155 659 l 32 659 l 23 972 "},"(":{"ha":332,"x_min":0,"x_max":0,"o":"m 308 931 b 308 41 141 656 141 316 l 172 -42 b 172 1014 -27 284 -27 688 l 308 931 "},")":{"ha":332,"x_min":0,"x_max":0,"o":"m 159 1014 b 159 -42 358 688 358 284 l 23 41 b 23 931 190 316 190 656 l 159 1014 "},"*":{"ha":479,"x_min":0,"x_max":0,"o":"m 378 732 l 443 660 l 324 554 l 240 647 l 155 554 l 37 660 l 101 732 l 23 761 l 78 911 l 160 881 l 160 972 l 319 972 l 319 881 l 401 911 l 456 761 "},"+":{"ha":514,"x_min":0,"x_max":0,"o":"m 491 565 l 491 407 l 336 407 l 336 252 l 178 252 l 178 407 l 23 407 l 23 565 l 178 565 l 178 720 l 336 720 l 336 565 "},",":{"ha":206,"x_min":0,"x_max":0,"o":"m 181 158 l 181 96 b 168 -2 181 63 178 30 b 64 -155 149 -62 113 -115 l 28 -99 b 98 0 59 -72 83 -38 l 23 0 l 23 158 "},"-":{"ha":613,"x_min":0,"x_max":0,"o":"m 589 565 l 589 407 l 23 407 l 23 565 "},".":{"ha":206,"x_min":0,"x_max":0,"o":"m 23 0 l 23 158 l 181 158 l 181 0 "},"/":{"ha":593,"x_min":0,"x_max":0,"o":"m 332 972 l 569 972 l 533 912 b 527 899 531 908 529 904 l 235 105 b 241 31 226 80 228 53 l 260 0 l 23 0 l 58 59 b 65 73 61 64 63 68 l 358 871 b 352 939 367 893 364 918 l 332 972 "},":":{"ha":206,"x_min":0,"x_max":0,"o":"m 23 0 l 23 158 l 181 158 l 181 0 m 23 466 l 23 624 l 181 624 l 181 466 "},";":{"ha":206,"x_min":0,"x_max":0,"o":"m 23 466 l 23 624 l 181 624 l 181 466 m 181 158 l 181 96 b 168 -2 181 63 178 30 b 64 -155 149 -62 113 -115 l 28 -99 b 98 0 59 -72 83 -38 l 23 0 l 23 158 "},"<":{"ha":514,"x_min":0,"x_max":0,"o":"m 254 486 l 490 261 l 380 145 l 23 486 l 380 827 l 490 711 "},"=":{"ha":613,"x_min":0,"x_max":0,"o":"m 589 707 l 589 549 l 23 549 l 23 707 m 589 423 l 589 265 l 23 265 l 23 423 "},">":{"ha":514,"x_min":0,"x_max":0,"o":"m 490 486 l 133 145 l 23 261 l 259 486 l 23 711 l 133 827 "},"?":{"ha":515,"x_min":0,"x_max":0,"o":"m 178 -1 l 178 158 l 337 158 l 337 -1 m 335 972 b 492 815 422 972 492 902 l 492 660 b 444 542 492 616 475 573 l 337 432 l 337 276 l 178 276 l 178 434 b 222 544 178 475 194 514 l 330 653 b 332 660 331 655 332 657 l 332 813 l 188 813 b 183 808 185 813 183 810 l 183 767 b 139 690 183 735 166 706 l 23 624 l 23 808 b 188 972 23 899 97 972 l 335 972 "},"@":{"ha":819,"x_min":0,"x_max":0,"o":"m 613 453 l 613 352 l 635 352 b 636 361 636 354 636 357 l 636 645 b 635 654 636 649 636 652 l 184 654 b 183 645 183 652 183 649 l 183 168 b 184 159 183 165 183 162 l 796 159 l 757 53 b 680 0 745 21 714 0 l 174 0 b 23 168 91 0 23 75 l 23 645 b 174 814 23 738 91 814 l 645 814 b 796 645 728 814 796 738 l 796 361 b 645 193 796 268 728 193 l 374 193 b 205 361 281 193 205 268 l 205 453 b 374 621 205 546 281 621 l 445 621 b 454 621 448 621 451 621 l 454 621 l 577 621 b 614 585 597 621 614 605 l 614 453 m 454 361 l 454 453 b 445 461 454 457 450 461 l 374 461 b 365 453 369 461 365 457 l 365 361 b 374 352 365 356 369 352 l 445 352 b 454 361 450 352 454 356 "},"A":{"ha":593,"x_min":0,"x_max":0,"o":"m 530 88 b 541 47 530 74 534 59 l 569 0 l 332 0 l 360 47 b 371 88 368 59 371 74 l 371 497 l 221 410 l 221 88 b 232 47 221 74 224 59 l 260 0 l 23 0 l 51 47 b 62 88 58 59 62 74 l 62 884 b 51 925 62 899 58 913 l 23 972 l 569 972 l 541 925 b 530 884 534 913 530 899 m 371 680 l 371 814 l 221 814 l 221 593 "},"À":{"ha":593,"x_min":0,"x_max":0,"o":"m 530 884 b 541 925 530 899 534 913 l 569 972 l 23 972 l 51 925 b 62 884 58 913 62 899 l 62 88 b 51 47 62 74 58 59 l 23 0 l 260 0 l 232 47 b 221 88 224 59 221 74 l 221 410 l 371 497 l 371 88 b 360 47 371 74 368 59 l 332 0 l 569 0 l 541 47 b 530 88 534 59 530 74 m 221 593 l 221 814 l 371 814 l 371 680 "},"Á":{"ha":593,"x_min":0,"x_max":0,"o":"m 530 88 b 541 47 530 74 534 59 l 569 0 l 332 0 l 360 47 b 371 88 368 59 371 74 l 371 497 l 221 410 l 221 88 b 232 47 221 74 224 59 l 260 0 l 23 0 l 51 47 b 62 88 58 59 62 74 l 62 884 b 51 925 62 899 58 913 l 23 972 l 569 972 l 541 925 b 530 884 534 913 530 899 m 371 680 l 371 814 l 221 814 l 221 593 "},"Â":{"ha":593,"x_min":0,"x_max":0,"o":"m 530 884 b 541 925 530 899 534 913 l 569 972 l 23 972 l 51 925 b 62 884 58 913 62 899 l 62 88 b 51 47 62 74 58 59 l 23 0 l 260 0 l 232 47 b 221 88 224 59 221 74 l 221 410 l 371 497 l 371 88 b 360 47 371 74 368 59 l 332 0 l 569 0 l 541 47 b 530 88 534 59 530 74 m 221 593 l 221 814 l 371 814 l 371 680 "},"Ã":{"ha":593,"x_min":0,"x_max":0,"o":"m 530 88 b 541 47 530 74 534 59 l 569 0 l 332 0 l 360 47 b 371 88 368 59 371 74 l 371 497 l 221 410 l 221 88 b 232 47 221 74 224 59 l 260 0 l 23 0 l 51 47 b 62 88 58 59 62 74 l 62 884 b 51 925 62 899 58 913 l 23 972 l 569 972 l 541 925 b 530 884 534 913 530 899 m 371 680 l 371 814 l 221 814 l 221 593 "},"Ä":{"ha":593,"x_min":0,"x_max":0,"o":"m 530 884 b 541 925 530 899 534 913 l 569 972 l 23 972 l 51 925 b 62 884 58 913 62 899 l 62 88 b 51 47 62 74 58 59 l 23 0 l 260 0 l 232 47 b 221 88 224 59 221 74 l 221 410 l 371 497 l 371 88 b 360 47 371 74 368 59 l 332 0 l 569 0 l 541 47 b 530 88 534 59 530 74 m 221 593 l 221 814 l 371 814 l 371 680 "},"Å":{"ha":593,"x_min":0,"x_max":0,"o":"m 530 88 b 541 47 530 74 534 59 l 569 0 l 332 0 l 360 47 b 371 88 368 59 371 74 l 371 497 l 221 410 l 221 88 b 232 47 221 74 224 59 l 260 0 l 23 0 l 51 47 b 62 88 58 59 62 74 l 62 884 b 51 925 62 899 58 913 l 23 972 l 569 972 l 541 925 b 530 884 534 913 530 899 m 371 680 l 371 814 l 221 814 l 221 593 "},"B":{"ha":553,"x_min":0,"x_max":0,"o":"m 441 972 b 530 884 490 972 530 933 l 530 623 b 452 545 530 580 495 545 b 530 467 495 545 530 510 l 530 90 b 440 0 530 40 490 0 l 23 0 l 51 47 b 62 88 58 59 62 74 l 62 882 b 50 927 62 898 58 913 l 23 972 m 332 158 b 371 198 354 158 371 176 l 371 427 b 333 466 371 449 354 466 l 221 466 l 221 158 m 333 624 b 371 663 354 624 371 642 l 371 774 b 332 814 371 796 354 814 l 221 814 l 221 624 l 333 624 "},"C":{"ha":514,"x_min":0,"x_max":0,"o":"m 311 972 l 402 972 b 491 884 451 972 491 933 l 491 775 l 445 802 b 401 814 432 810 417 814 l 221 814 b 181 774 199 814 181 796 l 181 198 b 221 158 181 176 199 158 l 401 158 b 445 170 417 158 432 163 l 491 197 l 491 89 b 402 0 491 40 451 0 l 109 0 b 23 86 62 0 23 39 l 23 886 b 109 972 23 934 62 972 l 311 972 "},"Ç":{"ha":514,"x_min":0,"x_max":0,"o":"m 311 972 l 109 972 b 23 886 62 972 23 934 l 23 86 b 109 0 23 39 62 0 l 402 0 b 491 89 451 0 491 40 l 491 197 l 445 170 b 401 158 432 163 417 158 l 221 158 b 181 198 199 158 181 176 l 181 774 b 221 814 181 796 199 814 l 401 814 b 445 802 417 814 432 810 l 491 775 l 491 884 b 402 972 491 933 451 972 l 311 972 "},"D":{"ha":553,"x_min":0,"x_max":0,"o":"m 371 972 l 452 972 b 530 895 495 972 530 938 l 530 78 b 452 0 530 35 495 0 l 23 0 l 51 48 b 62 87 58 60 62 73 l 62 885 b 51 925 62 899 58 913 l 23 972 l 371 972 m 335 158 b 371 195 355 158 371 175 l 371 777 b 335 814 371 797 355 814 l 221 814 l 221 158 l 335 158 "},"E":{"ha":553,"x_min":0,"x_max":0,"o":"m 530 972 l 530 775 l 482 803 b 443 814 470 810 457 814 l 221 814 l 221 624 l 364 624 b 402 635 378 624 391 628 l 451 663 l 451 427 l 402 455 b 364 466 391 462 378 466 l 221 466 l 221 158 l 443 158 b 482 169 457 158 470 162 l 530 198 l 530 0 l 23 0 l 52 48 b 62 87 58 60 62 73 l 62 886 b 52 924 62 899 58 912 l 23 972 "},"È":{"ha":553,"x_min":0,"x_max":0,"o":"m 23 972 l 52 924 b 62 886 58 912 62 899 l 62 87 b 52 48 62 73 58 60 l 23 0 l 530 0 l 530 198 l 482 169 b 443 158 470 162 457 158 l 221 158 l 221 466 l 364 466 b 402 455 378 466 391 462 l 451 427 l 451 663 l 402 635 b 364 624 391 628 378 624 l 221 624 l 221 814 l 443 814 b 482 803 457 814 470 810 l 530 775 l 530 972 "},"É":{"ha":553,"x_min":0,"x_max":0,"o":"m 530 972 l 530 775 l 482 803 b 443 814 470 810 457 814 l 221 814 l 221 624 l 364 624 b 402 635 378 624 391 628 l 451 663 l 451 427 l 402 455 b 364 466 391 462 378 466 l 221 466 l 221 158 l 443 158 b 482 169 457 158 470 162 l 530 198 l 530 0 l 23 0 l 52 48 b 62 87 58 60 62 73 l 62 886 b 52 924 62 899 58 912 l 23 972 "},"Ê":{"ha":553,"x_min":0,"x_max":0,"o":"m 23 972 l 52 924 b 62 886 58 912 62 899 l 62 87 b 52 48 62 73 58 60 l 23 0 l 530 0 l 530 198 l 482 169 b 443 158 470 162 457 158 l 221 158 l 221 466 l 364 466 b 402 455 378 466 391 462 l 451 427 l 451 663 l 402 635 b 364 624 391 628 378 624 l 221 624 l 221 814 l 443 814 b 482 803 457 814 470 810 l 530 775 l 530 972 "},"Ë":{"ha":553,"x_min":0,"x_max":0,"o":"m 530 972 l 530 775 l 482 803 b 443 814 470 810 457 814 l 221 814 l 221 624 l 364 624 b 402 635 378 624 391 628 l 451 663 l 451 427 l 402 455 b 364 466 391 462 378 466 l 221 466 l 221 158 l 443 158 b 482 169 457 158 470 162 l 530 198 l 530 0 l 23 0 l 52 48 b 62 87 58 60 62 73 l 62 886 b 52 924 62 899 58 912 l 23 972 "},"F":{"ha":553,"x_min":0,"x_max":0,"o":"m 530 972 l 530 775 l 484 802 b 440 814 471 810 456 814 l 220 814 l 220 624 l 361 624 b 405 636 376 624 392 628 l 451 663 l 451 427 l 405 454 b 361 466 392 462 376 466 l 220 466 l 220 90 b 233 45 220 74 225 59 l 260 0 l 23 0 l 50 45 b 62 90 58 59 62 74 l 62 882 b 50 927 62 898 58 913 l 23 972 "},"G":{"ha":514,"x_min":0,"x_max":0,"o":"m 332 554 l 332 814 l 181 814 l 181 158 l 332 158 l 332 243 l 332 336 l 332 336 l 238 391 l 491 537 l 491 -186 l 332 -95 l 332 0 l 100 0 b 23 77 58 0 23 34 l 23 895 b 100 972 23 938 58 972 l 414 972 b 491 895 456 972 491 938 l 491 693 b 450 622 491 664 475 637 "},"H":{"ha":593,"x_min":0,"x_max":0,"o":"m 530 89 b 542 46 530 74 534 59 l 569 0 l 332 0 l 360 46 b 371 89 367 59 371 74 l 371 497 l 221 410 l 221 89 b 232 46 221 74 225 59 l 260 0 l 23 0 l 50 46 b 62 89 58 59 62 74 l 62 883 b 50 926 62 898 58 913 l 23 972 l 260 972 l 232 926 b 221 883 225 913 221 898 l 221 593 l 371 680 l 371 883 b 360 926 371 898 367 913 l 332 972 l 569 972 l 542 926 b 530 883 534 913 530 898 "},"I":{"ha":283,"x_min":0,"x_max":0,"o":"m 220 883 l 220 89 b 232 46 220 74 225 59 l 260 0 l 23 0 l 50 46 b 62 89 58 59 62 74 l 62 883 b 50 926 62 898 58 913 l 23 972 l 260 972 l 232 926 b 221 883 225 913 221 898 "},"Ì":{"ha":283,"x_min":0,"x_max":0,"o":"m 221 883 b 232 926 221 898 225 913 l 260 972 l 23 972 l 50 926 b 62 883 58 913 62 898 l 62 89 b 50 46 62 74 58 59 l 23 0 l 260 0 l 232 46 b 220 89 225 59 220 74 l 220 883 "},"Í":{"ha":283,"x_min":0,"x_max":0,"o":"m 220 883 l 220 89 b 232 46 220 74 225 59 l 260 0 l 23 0 l 50 46 b 62 89 58 59 62 74 l 62 883 b 50 926 62 898 58 913 l 23 972 l 260 972 l 232 926 b 221 883 225 913 221 898 "},"Î":{"ha":283,"x_min":0,"x_max":0,"o":"m 221 883 b 232 926 221 898 225 913 l 260 972 l 23 972 l 50 926 b 62 883 58 913 62 898 l 62 89 b 50 46 62 74 58 59 l 23 0 l 260 0 l 232 46 b 220 89 225 59 220 74 l 220 883 "},"Ï":{"ha":283,"x_min":0,"x_max":0,"o":"m 220 883 l 220 89 b 232 46 220 74 225 59 l 260 0 l 23 0 l 50 46 b 62 89 58 59 62 74 l 62 883 b 50 926 62 898 58 913 l 23 972 l 260 972 l 232 926 b 221 883 225 913 221 898 "},"J":{"ha":553,"x_min":0,"x_max":0,"o":"m 491 972 l 530 972 l 501 924 b 491 885 494 912 491 899 l 491 77 b 414 0 491 34 456 0 l 100 0 b 23 77 57 0 23 34 l 23 327 b 64 398 23 356 39 383 l 181 466 l 181 198 b 221 158 181 176 199 158 l 293 158 b 332 198 315 158 332 176 l 332 885 b 322 924 332 899 329 913 l 293 972 l 491 972 "},"K":{"ha":593,"x_min":0,"x_max":0,"o":"m 530 66 l 569 0 l 371 0 l 371 431 b 336 466 371 450 356 466 l 221 466 l 221 0 l 23 0 l 62 66 l 62 906 l 23 972 l 221 972 l 221 685 l 386 972 l 569 972 l 368 624 l 452 624 b 530 546 495 624 530 589 "},"L":{"ha":553,"x_min":0,"x_max":0,"o":"m 443 158 b 482 169 457 158 470 162 l 530 198 l 530 0 l 23 0 l 51 48 b 62 87 58 60 62 73 l 62 885 b 51 924 62 899 58 912 l 23 972 l 260 972 l 231 924 b 220 885 224 912 220 899 l 220 158 l 443 158 "},"M":{"ha":853,"x_min":0,"x_max":0,"o":"m 790 66 l 829 0 l 593 0 l 632 66 l 632 465 l 486 0 l 366 0 l 221 465 l 221 66 l 260 0 l 23 0 l 62 66 l 62 906 l 23 972 l 260 972 l 234 929 l 426 314 l 618 929 l 593 972 l 829 972 l 790 906 "},"N":{"ha":593,"x_min":0,"x_max":0,"o":"m 530 885 l 530 87 b 540 48 530 73 534 60 l 569 0 l 332 0 l 338 10 b 346 72 349 29 352 51 l 221 473 l 221 87 b 231 48 221 73 224 60 l 260 0 l 23 0 l 51 48 b 62 87 58 60 62 73 l 62 885 b 51 924 62 899 58 912 l 23 972 l 260 972 l 253 961 b 246 899 242 942 239 920 l 371 496 l 371 885 b 361 924 371 899 368 912 l 332 972 l 569 972 l 541 924 b 530 885 534 912 530 899 "},"Ñ":{"ha":593,"x_min":0,"x_max":0,"o":"m 530 885 b 541 924 530 899 534 912 l 569 972 l 332 972 l 361 924 b 371 885 368 912 371 899 l 371 496 l 246 899 b 253 961 239 920 242 942 l 260 972 l 23 972 l 51 924 b 62 885 58 912 62 899 l 62 87 b 51 48 62 73 58 60 l 23 0 l 260 0 l 231 48 b 221 87 224 60 221 73 l 221 473 l 346 72 b 338 10 352 51 349 29 l 332 0 l 569 0 l 540 48 b 530 87 534 60 530 73 l 530 885 "},"O":{"ha":514,"x_min":0,"x_max":0,"o":"m 402 972 b 491 883 451 972 491 932 l 491 89 b 402 0 491 40 451 0 l 112 0 b 23 89 63 0 23 40 l 23 883 b 112 972 23 932 63 972 m 297 158 b 332 194 316 158 332 174 l 332 778 b 297 814 332 798 316 814 l 217 814 b 181 778 197 814 181 798 l 181 194 b 217 158 181 174 197 158 l 297 158 "},"Ò":{"ha":514,"x_min":0,"x_max":0,"o":"m 112 972 b 23 883 63 972 23 932 l 23 89 b 112 0 23 40 63 0 l 402 0 b 491 89 451 0 491 40 l 491 883 b 402 972 491 932 451 972 m 297 158 l 217 158 b 181 194 197 158 181 174 l 181 778 b 217 814 181 798 197 814 l 297 814 b 332 778 316 814 332 798 l 332 194 b 297 158 332 174 316 158 "},"Ó":{"ha":514,"x_min":0,"x_max":0,"o":"m 402 972 b 491 883 451 972 491 932 l 491 89 b 402 0 491 40 451 0 l 112 0 b 23 89 63 0 23 40 l 23 883 b 112 972 23 932 63 972 m 297 158 b 332 194 316 158 332 174 l 332 778 b 297 814 332 798 316 814 l 217 814 b 181 778 197 814 181 798 l 181 194 b 217 158 181 174 197 158 l 297 158 "},"Ô":{"ha":514,"x_min":0,"x_max":0,"o":"m 112 972 b 23 883 63 972 23 932 l 23 89 b 112 0 23 40 63 0 l 402 0 b 491 89 451 0 491 40 l 491 883 b 402 972 491 932 451 972 m 297 158 l 217 158 b 181 194 197 158 181 174 l 181 778 b 217 814 181 798 197 814 l 297 814 b 332 778 316 814 332 798 l 332 194 b 297 158 332 174 316 158 "},"Õ":{"ha":514,"x_min":0,"x_max":0,"o":"m 402 972 b 491 883 451 972 491 932 l 491 89 b 402 0 491 40 451 0 l 112 0 b 23 89 63 0 23 40 l 23 883 b 112 972 23 932 63 972 m 297 158 b 332 194 316 158 332 174 l 332 778 b 297 814 332 798 316 814 l 217 814 b 181 778 197 814 181 798 l 181 194 b 217 158 181 174 197 158 l 297 158 "},"Ø":{"ha":514,"x_min":0,"x_max":0,"o":"m 112 972 b 23 883 63 972 23 932 l 23 89 b 112 0 23 40 63 0 l 402 0 b 491 89 451 0 491 40 l 491 883 b 402 972 491 932 451 972 m 297 158 l 217 158 b 181 194 197 158 181 174 l 181 778 b 217 814 181 798 197 814 l 297 814 b 332 778 316 814 332 798 l 332 194 b 297 158 332 174 316 158 "},"P":{"ha":553,"x_min":0,"x_max":0,"o":"m 450 972 b 530 892 494 972 530 936 l 530 546 b 450 466 530 502 494 466 l 221 466 l 221 88 b 232 47 221 74 224 59 l 260 0 l 23 0 l 51 47 b 62 88 58 59 62 74 l 62 884 b 51 925 62 899 58 913 l 23 972 l 450 972 m 371 774 b 331 814 371 796 354 814 l 220 814 l 220 624 l 331 624 b 371 664 354 624 371 642 "},"Q":{"ha":514,"x_min":0,"x_max":0,"o":"m 332 972 l 414 972 b 491 895 456 972 491 938 l 491 77 b 414 0 491 34 456 0 l 336 0 l 336 -50 b 298 -117 336 -78 321 -103 l 178 -186 l 178 0 l 100 0 b 23 77 57 0 23 34 l 23 895 b 100 972 23 938 57 972 l 332 972 m 297 158 b 332 194 317 158 332 174 l 332 779 b 297 814 332 798 317 814 l 217 814 b 181 779 197 814 181 798 l 181 194 b 217 158 181 174 197 158 l 297 158 "},"R":{"ha":593,"x_min":0,"x_max":0,"o":"m 569 0 l 332 0 l 360 48 b 371 87 368 60 371 73 l 371 436 b 341 466 371 452 358 466 l 220 466 l 220 87 b 231 48 220 73 224 60 l 260 0 l 23 0 l 51 48 b 62 87 58 60 62 73 l 62 885 b 51 925 62 899 58 913 l 23 972 l 451 972 b 530 893 495 972 530 937 l 530 623 b 406 545 530 580 449 545 b 530 467 449 545 530 510 l 530 87 b 541 48 530 73 534 60 m 341 624 b 371 654 358 624 371 638 l 371 784 b 341 814 371 800 358 814 l 221 814 l 221 624 "},"S":{"ha":514,"x_min":0,"x_max":0,"o":"m 356 972 l 412 972 b 491 893 455 972 491 937 l 491 775 l 445 802 b 401 814 432 810 417 814 l 219 814 b 181 777 198 814 181 797 l 181 658 b 216 624 181 640 197 624 l 412 624 b 491 545 455 624 491 589 l 491 79 b 412 0 491 35 455 0 l 102 0 b 23 79 58 0 23 35 l 23 268 b 63 336 23 296 38 322 l 181 405 l 181 197 b 220 158 181 176 199 158 l 297 158 b 332 193 317 158 332 174 l 332 429 b 295 466 332 449 316 466 l 102 466 b 23 545 58 466 23 501 l 23 893 b 102 972 23 937 58 972 l 356 972 "},"T":{"ha":514,"x_min":0,"x_max":0,"o":"m 491 972 l 491 775 l 443 803 b 403 814 431 810 417 814 l 336 814 l 336 88 b 347 47 336 74 340 60 l 375 0 l 139 0 l 167 47 b 178 88 174 60 178 74 l 178 814 l 111 814 b 70 803 97 814 83 810 l 23 775 l 23 972 "},"U":{"ha":593,"x_min":0,"x_max":0,"o":"m 530 972 l 569 972 l 542 926 b 530 883 534 913 530 898 l 530 78 b 451 0 530 35 495 0 l 141 0 b 62 78 97 0 62 35 l 62 883 b 50 926 62 898 58 913 l 23 972 l 260 972 l 232 926 b 221 883 225 913 221 898 l 221 195 b 257 158 221 175 237 158 l 335 158 b 371 195 355 158 371 175 l 371 883 b 360 926 371 898 367 913 l 332 972 l 530 972 "},"Ù":{"ha":593,"x_min":0,"x_max":0,"o":"m 530 972 l 332 972 l 360 926 b 371 883 367 913 371 898 l 371 195 b 335 158 371 175 355 158 l 257 158 b 221 195 237 158 221 175 l 221 883 b 232 926 221 898 225 913 l 260 972 l 23 972 l 50 926 b 62 883 58 913 62 898 l 62 78 b 141 0 62 35 97 0 l 451 0 b 530 78 495 0 530 35 l 530 883 b 542 926 530 898 534 913 l 569 972 l 530 972 "},"Ú":{"ha":593,"x_min":0,"x_max":0,"o":"m 530 972 l 569 972 l 542 926 b 530 883 534 913 530 898 l 530 78 b 451 0 530 35 495 0 l 141 0 b 62 78 97 0 62 35 l 62 883 b 50 926 62 898 58 913 l 23 972 l 260 972 l 232 926 b 221 883 225 913 221 898 l 221 195 b 257 158 221 175 237 158 l 335 158 b 371 195 355 158 371 175 l 371 883 b 360 926 371 898 367 913 l 332 972 l 530 972 "},"Û":{"ha":593,"x_min":0,"x_max":0,"o":"m 530 972 l 332 972 l 360 926 b 371 883 367 913 371 898 l 371 195 b 335 158 371 175 355 158 l 257 158 b 221 195 237 158 221 175 l 221 883 b 232 926 221 898 225 913 l 260 972 l 23 972 l 50 926 b 62 883 58 913 62 898 l 62 78 b 141 0 62 35 97 0 l 451 0 b 530 78 495 0 530 35 l 530 883 b 542 926 530 898 534 913 l 569 972 l 530 972 "},"Ü":{"ha":593,"x_min":0,"x_max":0,"o":"m 530 972 l 569 972 l 542 926 b 530 883 534 913 530 898 l 530 78 b 451 0 530 35 495 0 l 141 0 b 62 78 97 0 62 35 l 62 883 b 50 926 62 898 58 913 l 23 972 l 260 972 l 232 926 b 221 883 225 913 221 898 l 221 195 b 257 158 221 175 237 158 l 335 158 b 371 195 355 158 371 175 l 371 883 b 360 926 371 898 367 913 l 332 972 l 530 972 "},"V":{"ha":593,"x_min":0,"x_max":0,"o":"m 569 972 l 537 918 b 527 892 532 910 529 902 l 377 0 l 217 0 l 64 892 b 55 918 63 902 60 910 l 23 972 l 260 972 l 235 930 b 225 879 226 915 222 896 l 296 462 l 367 879 b 357 930 370 897 366 915 l 332 972 "},"W":{"ha":665,"x_min":0,"x_max":0,"o":"m 603 882 l 603 90 b 616 45 603 74 607 59 l 642 0 l 406 0 b 411 49 414 15 417 33 l 333 301 l 254 49 b 260 0 249 33 251 15 l 23 0 l 50 45 b 62 90 58 59 62 74 l 62 882 b 50 927 62 898 58 913 l 23 972 l 260 972 l 233 927 b 221 882 225 913 221 898 l 221 449 l 275 624 l 390 624 l 445 449 l 445 882 b 432 927 445 898 441 913 l 406 972 l 642 972 l 616 927 b 603 882 607 913 603 898 "},"X":{"ha":593,"x_min":0,"x_max":0,"o":"m 527 73 b 534 60 529 68 531 64 l 569 0 l 332 0 l 351 31 b 358 104 364 53 366 80 l 296 271 l 296 271 l 296 271 l 234 104 b 241 31 226 80 228 53 l 260 0 l 23 0 l 58 60 b 65 73 61 64 63 68 l 217 486 l 65 900 b 58 912 63 904 61 908 l 23 972 l 260 972 l 241 941 b 234 869 228 919 226 892 l 296 701 l 296 701 l 296 701 l 358 869 b 351 941 366 892 364 919 l 332 972 l 569 972 l 534 912 b 527 900 531 908 529 904 l 375 486 "},"Y":{"ha":593,"x_min":0,"x_max":0,"o":"m 569 974 l 534 915 b 527 900 531 910 529 905 l 381 502 b 375 472 377 493 375 482 l 375 104 b 388 58 375 88 380 72 l 414 13 l 178 13 l 204 58 b 217 104 212 72 217 88 l 217 472 b 211 502 217 482 215 493 l 65 900 b 58 915 63 905 61 910 l 23 974 l 260 974 l 242 944 b 235 868 228 921 226 893 l 296 703 l 296 703 l 296 703 l 357 868 b 350 944 366 893 364 921 l 332 974 "},"Ý":{"ha":593,"x_min":0,"x_max":0,"o":"m 332 974 l 350 944 b 357 868 364 921 366 893 l 296 703 l 296 703 l 296 703 l 235 868 b 242 944 226 893 228 921 l 260 974 l 23 974 l 58 915 b 65 900 61 910 63 905 l 211 502 b 217 472 215 493 217 482 l 217 104 b 204 58 217 88 212 72 l 178 13 l 414 13 l 388 58 b 375 104 380 72 375 88 l 375 472 b 381 502 375 482 377 493 l 527 900 b 534 915 529 905 531 910 l 569 974 "},"Z":{"ha":514,"x_min":0,"x_max":0,"o":"m 491 833 b 483 797 491 820 488 808 l 181 158 l 402 158 b 444 170 417 158 431 162 l 491 198 l 491 0 l 23 0 l 23 140 b 31 175 23 152 26 164 l 332 814 l 111 814 b 70 803 97 814 82 810 l 23 775 l 23 972 l 491 972 "},"[":{"ha":281,"x_min":0,"x_max":0,"o":"m 181 814 l 181 158 l 257 158 l 257 0 l 23 0 l 23 972 l 257 972 l 257 814 "},"\\":{"ha":593,"x_min":0,"x_max":0,"o":"m 351 31 b 357 105 364 53 366 80 l 65 899 b 59 913 63 904 61 908 l 23 972 l 260 972 l 240 939 b 234 871 228 918 225 893 l 527 73 b 534 59 529 68 531 64 l 569 0 l 332 0 "},"]":{"ha":281,"x_min":0,"x_max":0,"o":"m 257 972 l 257 0 l 23 0 l 23 158 l 98 158 l 98 814 l 23 814 l 23 972 "},"^":{"ha":725,"x_min":0,"x_max":0,"o":"m 701 625 l 498 625 l 362 798 l 226 625 l 23 625 l 296 972 l 428 972 "},"_":{"ha":514,"x_min":0,"x_max":0,"o":"m 23 0 l 23 158 l 491 158 l 491 0 "},"`":{"ha":283,"x_min":0,"x_max":0,"o":"m 195 972 l 260 814 l 88 814 l 23 972 "},"a":{"ha":593,"x_min":0,"x_max":0,"o":"m 530 88 b 541 47 530 74 534 59 l 569 0 l 332 0 l 360 47 b 371 88 368 59 371 74 l 371 497 l 221 410 l 221 88 b 232 47 221 74 224 59 l 260 0 l 23 0 l 51 47 b 62 88 58 59 62 74 l 62 884 b 51 925 62 899 58 913 l 23 972 l 569 972 l 541 925 b 530 884 534 913 530 899 m 371 680 l 371 814 l 221 814 l 221 593 "},"à":{"ha":593,"x_min":0,"x_max":0,"o":"m 530 884 b 541 925 530 899 534 913 l 569 972 l 23 972 l 51 925 b 62 884 58 913 62 899 l 62 88 b 51 47 62 74 58 59 l 23 0 l 260 0 l 232 47 b 221 88 224 59 221 74 l 221 410 l 371 497 l 371 88 b 360 47 371 74 368 59 l 332 0 l 569 0 l 541 47 b 530 88 534 59 530 74 m 221 593 l 221 814 l 371 814 l 371 680 "},"á":{"ha":593,"x_min":0,"x_max":0,"o":"m 530 88 b 541 47 530 74 534 59 l 569 0 l 332 0 l 360 47 b 371 88 368 59 371 74 l 371 497 l 221 410 l 221 88 b 232 47 221 74 224 59 l 260 0 l 23 0 l 51 47 b 62 88 58 59 62 74 l 62 884 b 51 925 62 899 58 913 l 23 972 l 569 972 l 541 925 b 530 884 534 913 530 899 m 371 680 l 371 814 l 221 814 l 221 593 "},"â":{"ha":593,"x_min":0,"x_max":0,"o":"m 530 884 b 541 925 530 899 534 913 l 569 972 l 23 972 l 51 925 b 62 884 58 913 62 899 l 62 88 b 51 47 62 74 58 59 l 23 0 l 260 0 l 232 47 b 221 88 224 59 221 74 l 221 410 l 371 497 l 371 88 b 360 47 371 74 368 59 l 332 0 l 569 0 l 541 47 b 530 88 534 59 530 74 m 221 593 l 221 814 l 371 814 l 371 680 "},"ã":{"ha":593,"x_min":0,"x_max":0,"o":"m 530 88 b 541 47 530 74 534 59 l 569 0 l 332 0 l 360 47 b 371 88 368 59 371 74 l 371 497 l 221 410 l 221 88 b 232 47 221 74 224 59 l 260 0 l 23 0 l 51 47 b 62 88 58 59 62 74 l 62 884 b 51 925 62 899 58 913 l 23 972 l 569 972 l 541 925 b 530 884 534 913 530 899 m 371 680 l 371 814 l 221 814 l 221 593 "},"ä":{"ha":593,"x_min":0,"x_max":0,"o":"m 530 884 b 541 925 530 899 534 913 l 569 972 l 23 972 l 51 925 b 62 884 58 913 62 899 l 62 88 b 51 47 62 74 58 59 l 23 0 l 260 0 l 232 47 b 221 88 224 59 221 74 l 221 410 l 371 497 l 371 88 b 360 47 371 74 368 59 l 332 0 l 569 0 l 541 47 b 530 88 534 59 530 74 m 221 593 l 221 814 l 371 814 l 371 680 "},"å":{"ha":593,"x_min":0,"x_max":0,"o":"m 530 88 b 541 47 530 74 534 59 l 569 0 l 332 0 l 360 47 b 371 88 368 59 371 74 l 371 497 l 221 410 l 221 88 b 232 47 221 74 224 59 l 260 0 l 23 0 l 51 47 b 62 88 58 59 62 74 l 62 884 b 51 925 62 899 58 913 l 23 972 l 569 972 l 541 925 b 530 884 534 913 530 899 m 371 680 l 371 814 l 221 814 l 221 593 "},"b":{"ha":553,"x_min":0,"x_max":0,"o":"m 441 972 b 530 884 490 972 530 933 l 530 623 b 452 545 530 580 495 545 b 530 467 495 545 530 510 l 530 90 b 440 0 530 40 490 0 l 23 0 l 51 47 b 62 88 58 59 62 74 l 62 882 b 50 927 62 898 58 913 l 23 972 m 332 158 b 371 198 354 158 371 176 l 371 427 b 333 466 371 449 354 466 l 221 466 l 221 158 m 333 624 b 371 663 354 624 371 642 l 371 774 b 332 814 371 796 354 814 l 221 814 l 221 624 l 333 624 "},"c":{"ha":514,"x_min":0,"x_max":0,"o":"m 311 972 l 402 972 b 491 884 451 972 491 933 l 491 775 l 445 802 b 401 814 432 810 417 814 l 221 814 b 181 774 199 814 181 796 l 181 198 b 221 158 181 176 199 158 l 401 158 b 445 170 417 158 432 163 l 491 197 l 491 89 b 402 0 491 40 451 0 l 109 0 b 23 86 62 0 23 39 l 23 886 b 109 972 23 934 62 972 l 311 972 "},"ç":{"ha":514,"x_min":0,"x_max":0,"o":"m 311 972 l 109 972 b 23 886 62 972 23 934 l 23 86 b 109 0 23 39 62 0 l 402 0 b 491 89 451 0 491 40 l 491 197 l 445 170 b 401 158 432 163 417 158 l 221 158 b 181 198 199 158 181 176 l 181 774 b 221 814 181 796 199 814 l 401 814 b 445 802 417 814 432 810 l 491 775 l 491 884 b 402 972 491 933 451 972 l 311 972 "},"d":{"ha":553,"x_min":0,"x_max":0,"o":"m 371 972 l 452 972 b 530 895 495 972 530 938 l 530 78 b 452 0 530 35 495 0 l 23 0 l 51 48 b 62 87 58 60 62 73 l 62 885 b 51 925 62 899 58 913 l 23 972 l 371 972 m 335 158 b 371 195 355 158 371 175 l 371 777 b 335 814 371 797 355 814 l 221 814 l 221 158 l 335 158 "},"e":{"ha":553,"x_min":0,"x_max":0,"o":"m 530 972 l 530 775 l 482 803 b 443 814 470 810 457 814 l 221 814 l 221 624 l 364 624 b 402 635 378 624 391 628 l 451 663 l 451 427 l 402 455 b 364 466 391 462 378 466 l 221 466 l 221 158 l 443 158 b 482 169 457 158 470 162 l 530 198 l 530 0 l 23 0 l 52 48 b 62 87 58 60 62 73 l 62 886 b 52 924 62 899 58 912 l 23 972 "},"è":{"ha":553,"x_min":0,"x_max":0,"o":"m 23 972 l 52 924 b 62 886 58 912 62 899 l 62 87 b 52 48 62 73 58 60 l 23 0 l 530 0 l 530 198 l 482 169 b 443 158 470 162 457 158 l 221 158 l 221 466 l 364 466 b 402 455 378 466 391 462 l 451 427 l 451 663 l 402 635 b 364 624 391 628 378 624 l 221 624 l 221 814 l 443 814 b 482 803 457 814 470 810 l 530 775 l 530 972 "},"é":{"ha":553,"x_min":0,"x_max":0,"o":"m 530 972 l 530 775 l 482 803 b 443 814 470 810 457 814 l 221 814 l 221 624 l 364 624 b 402 635 378 624 391 628 l 451 663 l 451 427 l 402 455 b 364 466 391 462 378 466 l 221 466 l 221 158 l 443 158 b 482 169 457 158 470 162 l 530 198 l 530 0 l 23 0 l 52 48 b 62 87 58 60 62 73 l 62 886 b 52 924 62 899 58 912 l 23 972 "},"ê":{"ha":553,"x_min":0,"x_max":0,"o":"m 23 972 l 52 924 b 62 886 58 912 62 899 l 62 87 b 52 48 62 73 58 60 l 23 0 l 530 0 l 530 198 l 482 169 b 443 158 470 162 457 158 l 221 158 l 221 466 l 364 466 b 402 455 378 466 391 462 l 451 427 l 451 663 l 402 635 b 364 624 391 628 378 624 l 221 624 l 221 814 l 443 814 b 482 803 457 814 470 810 l 530 775 l 530 972 "},"ë":{"ha":553,"x_min":0,"x_max":0,"o":"m 530 972 l 530 775 l 482 803 b 443 814 470 810 457 814 l 221 814 l 221 624 l 364 624 b 402 635 378 624 391 628 l 451 663 l 451 427 l 402 455 b 364 466 391 462 378 466 l 221 466 l 221 158 l 443 158 b 482 169 457 158 470 162 l 530 198 l 530 0 l 23 0 l 52 48 b 62 87 58 60 62 73 l 62 886 b 52 924 62 899 58 912 l 23 972 "},"f":{"ha":553,"x_min":0,"x_max":0,"o":"m 530 972 l 530 775 l 484 802 b 440 814 471 810 456 814 l 220 814 l 220 624 l 361 624 b 405 636 376 624 392 628 l 451 663 l 451 427 l 405 454 b 361 466 392 462 376 466 l 220 466 l 220 90 b 233 45 220 74 225 59 l 260 0 l 23 0 l 50 45 b 62 90 58 59 62 74 l 62 882 b 50 927 62 898 58 913 l 23 972 "},"g":{"ha":514,"x_min":0,"x_max":0,"o":"m 332 554 l 332 814 l 181 814 l 181 158 l 332 158 l 332 243 l 332 336 l 332 336 l 238 391 l 491 537 l 491 -186 l 332 -95 l 332 0 l 100 0 b 23 77 58 0 23 34 l 23 895 b 100 972 23 938 58 972 l 414 972 b 491 895 456 972 491 938 l 491 693 b 450 622 491 664 475 637 "},"h":{"ha":593,"x_min":0,"x_max":0,"o":"m 530 89 b 542 46 530 74 534 59 l 569 0 l 332 0 l 360 46 b 371 89 367 59 371 74 l 371 497 l 221 410 l 221 89 b 232 46 221 74 225 59 l 260 0 l 23 0 l 50 46 b 62 89 58 59 62 74 l 62 883 b 50 926 62 898 58 913 l 23 972 l 260 972 l 232 926 b 221 883 225 913 221 898 l 221 593 l 371 680 l 371 883 b 360 926 371 898 367 913 l 332 972 l 569 972 l 542 926 b 530 883 534 913 530 898 "},"i":{"ha":283,"x_min":0,"x_max":0,"o":"m 220 883 l 220 89 b 232 46 220 74 225 59 l 260 0 l 23 0 l 50 46 b 62 89 58 59 62 74 l 62 883 b 50 926 62 898 58 913 l 23 972 l 260 972 l 232 926 b 221 883 225 913 221 898 "},"ì":{"ha":283,"x_min":0,"x_max":0,"o":"m 221 883 b 232 926 221 898 225 913 l 260 972 l 23 972 l 50 926 b 62 883 58 913 62 898 l 62 89 b 50 46 62 74 58 59 l 23 0 l 260 0 l 232 46 b 220 89 225 59 220 74 l 220 883 "},"í":{"ha":283,"x_min":0,"x_max":0,"o":"m 220 883 l 220 89 b 232 46 220 74 225 59 l 260 0 l 23 0 l 50 46 b 62 89 58 59 62 74 l 62 883 b 50 926 62 898 58 913 l 23 972 l 260 972 l 232 926 b 221 883 225 913 221 898 "},"î":{"ha":283,"x_min":0,"x_max":0,"o":"m 221 883 b 232 926 221 898 225 913 l 260 972 l 23 972 l 50 926 b 62 883 58 913 62 898 l 62 89 b 50 46 62 74 58 59 l 23 0 l 260 0 l 232 46 b 220 89 225 59 220 74 l 220 883 "},"ï":{"ha":283,"x_min":0,"x_max":0,"o":"m 220 883 l 220 89 b 232 46 220 74 225 59 l 260 0 l 23 0 l 50 46 b 62 89 58 59 62 74 l 62 883 b 50 926 62 898 58 913 l 23 972 l 260 972 l 232 926 b 221 883 225 913 221 898 "},"j":{"ha":553,"x_min":0,"x_max":0,"o":"m 491 972 l 530 972 l 501 924 b 491 885 494 912 491 899 l 491 77 b 414 0 491 34 456 0 l 100 0 b 23 77 57 0 23 34 l 23 327 b 64 398 23 356 39 383 l 181 466 l 181 198 b 221 158 181 176 199 158 l 293 158 b 332 198 315 158 332 176 l 332 885 b 322 924 332 899 329 913 l 293 972 l 491 972 "},"k":{"ha":593,"x_min":0,"x_max":0,"o":"m 530 66 l 569 0 l 371 0 l 371 431 b 336 466 371 450 356 466 l 221 466 l 221 0 l 23 0 l 62 66 l 62 906 l 23 972 l 221 972 l 221 685 l 386 972 l 569 972 l 368 624 l 452 624 b 530 546 495 624 530 589 "},"l":{"ha":553,"x_min":0,"x_max":0,"o":"m 443 158 b 482 169 457 158 470 162 l 530 198 l 530 0 l 23 0 l 51 48 b 62 87 58 60 62 73 l 62 885 b 51 924 62 899 58 912 l 23 972 l 260 972 l 231 924 b 220 885 224 912 220 899 l 220 158 l 443 158 "},"m":{"ha":853,"x_min":0,"x_max":0,"o":"m 790 66 l 829 0 l 593 0 l 632 66 l 632 465 l 486 0 l 366 0 l 221 465 l 221 66 l 260 0 l 23 0 l 62 66 l 62 906 l 23 972 l 260 972 l 234 929 l 426 314 l 618 929 l 593 972 l 829 972 l 790 906 "},"n":{"ha":593,"x_min":0,"x_max":0,"o":"m 530 885 l 530 87 b 540 48 530 73 534 60 l 569 0 l 332 0 l 338 10 b 346 72 349 29 352 51 l 221 473 l 221 87 b 231 48 221 73 224 60 l 260 0 l 23 0 l 51 48 b 62 87 58 60 62 73 l 62 885 b 51 924 62 899 58 912 l 23 972 l 260 972 l 253 961 b 246 899 242 942 239 920 l 371 496 l 371 885 b 361 924 371 899 368 912 l 332 972 l 569 972 l 541 924 b 530 885 534 912 530 899 "},"ñ":{"ha":593,"x_min":0,"x_max":0,"o":"m 530 885 b 541 924 530 899 534 912 l 569 972 l 332 972 l 361 924 b 371 885 368 912 371 899 l 371 496 l 246 899 b 253 961 239 920 242 942 l 260 972 l 23 972 l 51 924 b 62 885 58 912 62 899 l 62 87 b 51 48 62 73 58 60 l 23 0 l 260 0 l 231 48 b 221 87 224 60 221 73 l 221 473 l 346 72 b 338 10 352 51 349 29 l 332 0 l 569 0 l 540 48 b 530 87 534 60 530 73 l 530 885 "},"o":{"ha":514,"x_min":0,"x_max":0,"o":"m 402 972 b 491 883 451 972 491 932 l 491 89 b 402 0 491 40 451 0 l 112 0 b 23 89 63 0 23 40 l 23 883 b 112 972 23 932 63 972 m 297 158 b 332 194 316 158 332 174 l 332 778 b 297 814 332 798 316 814 l 217 814 b 181 778 197 814 181 798 l 181 194 b 217 158 181 174 197 158 l 297 158 "},"ò":{"ha":514,"x_min":0,"x_max":0,"o":"m 112 972 b 23 883 63 972 23 932 l 23 89 b 112 0 23 40 63 0 l 402 0 b 491 89 451 0 491 40 l 491 883 b 402 972 491 932 451 972 m 297 158 l 217 158 b 181 194 197 158 181 174 l 181 778 b 217 814 181 798 197 814 l 297 814 b 332 778 316 814 332 798 l 332 194 b 297 158 332 174 316 158 "},"ó":{"ha":514,"x_min":0,"x_max":0,"o":"m 402 972 b 491 883 451 972 491 932 l 491 89 b 402 0 491 40 451 0 l 112 0 b 23 89 63 0 23 40 l 23 883 b 112 972 23 932 63 972 m 297 158 b 332 194 316 158 332 174 l 332 778 b 297 814 332 798 316 814 l 217 814 b 181 778 197 814 181 798 l 181 194 b 217 158 181 174 197 158 l 297 158 "},"ô":{"ha":514,"x_min":0,"x_max":0,"o":"m 112 972 b 23 883 63 972 23 932 l 23 89 b 112 0 23 40 63 0 l 402 0 b 491 89 451 0 491 40 l 491 883 b 402 972 491 932 451 972 m 297 158 l 217 158 b 181 194 197 158 181 174 l 181 778 b 217 814 181 798 197 814 l 297 814 b 332 778 316 814 332 798 l 332 194 b 297 158 332 174 316 158 "},"õ":{"ha":514,"x_min":0,"x_max":0,"o":"m 402 972 b 491 883 451 972 491 932 l 491 89 b 402 0 491 40 451 0 l 112 0 b 23 89 63 0 23 40 l 23 883 b 112 972 23 932 63 972 m 297 158 b 332 194 316 158 332 174 l 332 778 b 297 814 332 798 316 814 l 217 814 b 181 778 197 814 181 798 l 181 194 b 217 158 181 174 197 158 l 297 158 "},"ø":{"ha":514,"x_min":0,"x_max":0,"o":"m 112 972 b 23 883 63 972 23 932 l 23 89 b 112 0 23 40 63 0 l 402 0 b 491 89 451 0 491 40 l 491 883 b 402 972 491 932 451 972 m 297 158 l 217 158 b 181 194 197 158 181 174 l 181 778 b 217 814 181 798 197 814 l 297 814 b 332 778 316 814 332 798 l 332 194 b 297 158 332 174 316 158 "},"p":{"ha":553,"x_min":0,"x_max":0,"o":"m 450 972 b 530 892 494 972 530 936 l 530 546 b 450 466 530 502 494 466 l 221 466 l 221 88 b 232 47 221 74 224 59 l 260 0 l 23 0 l 51 47 b 62 88 58 59 62 74 l 62 884 b 51 925 62 899 58 913 l 23 972 l 450 972 m 371 774 b 331 814 371 796 354 814 l 220 814 l 220 624 l 331 624 b 371 664 354 624 371 642 "},"q":{"ha":514,"x_min":0,"x_max":0,"o":"m 332 972 l 414 972 b 491 895 456 972 491 938 l 491 77 b 414 0 491 34 456 0 l 336 0 l 336 -50 b 298 -117 336 -78 321 -103 l 178 -186 l 178 0 l 100 0 b 23 77 57 0 23 34 l 23 895 b 100 972 23 938 57 972 l 332 972 m 297 158 b 332 194 317 158 332 174 l 332 779 b 297 814 332 798 317 814 l 217 814 b 181 779 197 814 181 798 l 181 194 b 217 158 181 174 197 158 l 297 158 "},"r":{"ha":593,"x_min":0,"x_max":0,"o":"m 569 0 l 332 0 l 360 48 b 371 87 368 60 371 73 l 371 436 b 341 466 371 452 358 466 l 220 466 l 220 87 b 231 48 220 73 224 60 l 260 0 l 23 0 l 51 48 b 62 87 58 60 62 73 l 62 885 b 51 925 62 899 58 913 l 23 972 l 451 972 b 530 893 495 972 530 937 l 530 623 b 406 545 530 580 449 545 b 530 467 449 545 530 510 l 530 87 b 541 48 530 73 534 60 m 341 624 b 371 654 358 624 371 638 l 371 784 b 341 814 371 800 358 814 l 221 814 l 221 624 "},"s":{"ha":514,"x_min":0,"x_max":0,"o":"m 356 972 l 412 972 b 491 893 455 972 491 937 l 491 775 l 445 802 b 401 814 432 810 417 814 l 219 814 b 181 777 198 814 181 797 l 181 658 b 216 624 181 640 197 624 l 412 624 b 491 545 455 624 491 589 l 491 79 b 412 0 491 35 455 0 l 102 0 b 23 79 58 0 23 35 l 23 268 b 63 336 23 296 38 322 l 181 405 l 181 197 b 220 158 181 176 199 158 l 297 158 b 332 193 317 158 332 174 l 332 429 b 295 466 332 449 316 466 l 102 466 b 23 545 58 466 23 501 l 23 893 b 102 972 23 937 58 972 l 356 972 "},"ß":{"ha":514,"x_min":0,"x_max":0,"o":"m 356 972 l 102 972 b 23 893 58 972 23 937 l 23 545 b 102 466 23 501 58 466 l 295 466 b 332 429 316 466 332 449 l 332 193 b 297 158 332 174 317 158 l 220 158 b 181 197 199 158 181 176 l 181 405 l 63 336 b 23 268 38 322 23 296 l 23 79 b 102 0 23 35 58 0 l 412 0 b 491 79 455 0 491 35 l 491 545 b 412 624 491 589 455 624 l 216 624 b 181 658 197 624 181 640 l 181 777 b 219 814 181 797 198 814 l 401 814 b 445 802 417 814 432 810 l 491 775 l 491 893 b 412 972 491 937 455 972 l 356 972 "},"t":{"ha":514,"x_min":0,"x_max":0,"o":"m 491 972 l 491 775 l 443 803 b 403 814 431 810 417 814 l 336 814 l 336 88 b 347 47 336 74 340 60 l 375 0 l 139 0 l 167 47 b 178 88 174 60 178 74 l 178 814 l 111 814 b 70 803 97 814 83 810 l 23 775 l 23 972 "},"u":{"ha":593,"x_min":0,"x_max":0,"o":"m 530 972 l 569 972 l 542 926 b 530 883 534 913 530 898 l 530 78 b 451 0 530 35 495 0 l 141 0 b 62 78 97 0 62 35 l 62 883 b 50 926 62 898 58 913 l 23 972 l 260 972 l 232 926 b 221 883 225 913 221 898 l 221 195 b 257 158 221 175 237 158 l 335 158 b 371 195 355 158 371 175 l 371 883 b 360 926 371 898 367 913 l 332 972 l 530 972 "},"ù":{"ha":593,"x_min":0,"x_max":0,"o":"m 530 972 l 332 972 l 360 926 b 371 883 367 913 371 898 l 371 195 b 335 158 371 175 355 158 l 257 158 b 221 195 237 158 221 175 l 221 883 b 232 926 221 898 225 913 l 260 972 l 23 972 l 50 926 b 62 883 58 913 62 898 l 62 78 b 141 0 62 35 97 0 l 451 0 b 530 78 495 0 530 35 l 530 883 b 542 926 530 898 534 913 l 569 972 l 530 972 "},"ú":{"ha":593,"x_min":0,"x_max":0,"o":"m 530 972 l 569 972 l 542 926 b 530 883 534 913 530 898 l 530 78 b 451 0 530 35 495 0 l 141 0 b 62 78 97 0 62 35 l 62 883 b 50 926 62 898 58 913 l 23 972 l 260 972 l 232 926 b 221 883 225 913 221 898 l 221 195 b 257 158 221 175 237 158 l 335 158 b 371 195 355 158 371 175 l 371 883 b 360 926 371 898 367 913 l 332 972 l 530 972 "},"û":{"ha":593,"x_min":0,"x_max":0,"o":"m 530 972 l 332 972 l 360 926 b 371 883 367 913 371 898 l 371 195 b 335 158 371 175 355 158 l 257 158 b 221 195 237 158 221 175 l 221 883 b 232 926 221 898 225 913 l 260 972 l 23 972 l 50 926 b 62 883 58 913 62 898 l 62 78 b 141 0 62 35 97 0 l 451 0 b 530 78 495 0 530 35 l 530 883 b 542 926 530 898 534 913 l 569 972 l 530 972 "},"ü":{"ha":593,"x_min":0,"x_max":0,"o":"m 530 972 l 569 972 l 542 926 b 530 883 534 913 530 898 l 530 78 b 451 0 530 35 495 0 l 141 0 b 62 78 97 0 62 35 l 62 883 b 50 926 62 898 58 913 l 23 972 l 260 972 l 232 926 b 221 883 225 913 221 898 l 221 195 b 257 158 221 175 237 158 l 335 158 b 371 195 355 158 371 175 l 371 883 b 360 926 371 898 367 913 l 332 972 l 530 972 "},"v":{"ha":593,"x_min":0,"x_max":0,"o":"m 569 972 l 537 918 b 527 892 532 910 529 902 l 377 0 l 217 0 l 64 892 b 55 918 63 902 60 910 l 23 972 l 260 972 l 235 930 b 225 879 226 915 222 896 l 296 462 l 367 879 b 357 930 370 897 366 915 l 332 972 "},"w":{"ha":665,"x_min":0,"x_max":0,"o":"m 603 882 l 603 90 b 616 45 603 74 607 59 l 642 0 l 406 0 b 411 49 414 15 417 33 l 333 301 l 254 49 b 260 0 249 33 251 15 l 23 0 l 50 45 b 62 90 58 59 62 74 l 62 882 b 50 927 62 898 58 913 l 23 972 l 260 972 l 233 927 b 221 882 225 913 221 898 l 221 449 l 275 624 l 390 624 l 445 449 l 445 882 b 432 927 445 898 441 913 l 406 972 l 642 972 l 616 927 b 603 882 607 913 603 898 "},"x":{"ha":593,"x_min":0,"x_max":0,"o":"m 527 73 b 534 60 529 68 531 64 l 569 0 l 332 0 l 351 31 b 358 104 364 53 366 80 l 296 271 l 296 271 l 296 271 l 234 104 b 241 31 226 80 228 53 l 260 0 l 23 0 l 58 60 b 65 73 61 64 63 68 l 217 486 l 65 900 b 58 912 63 904 61 908 l 23 972 l 260 972 l 241 941 b 234 869 228 919 226 892 l 296 701 l 296 701 l 296 701 l 358 869 b 351 941 366 892 364 919 l 332 972 l 569 972 l 534 912 b 527 900 531 908 529 904 l 375 486 "},"y":{"ha":593,"x_min":0,"x_max":0,"o":"m 569 974 l 534 915 b 527 900 531 910 529 905 l 381 502 b 375 472 377 493 375 482 l 375 104 b 388 58 375 88 380 72 l 414 13 l 178 13 l 204 58 b 217 104 212 72 217 88 l 217 472 b 211 502 217 482 215 493 l 65 900 b 58 915 63 905 61 910 l 23 974 l 260 974 l 242 944 b 235 868 228 921 226 893 l 296 703 l 296 703 l 296 703 l 357 868 b 350 944 366 893 364 921 l 332 974 "},"ý":{"ha":593,"x_min":0,"x_max":0,"o":"m 332 974 l 350 944 b 357 868 364 921 366 893 l 296 703 l 296 703 l 296 703 l 235 868 b 242 944 226 893 228 921 l 260 974 l 23 974 l 58 915 b 65 900 61 910 63 905 l 211 502 b 217 472 215 493 217 482 l 217 104 b 204 58 217 88 212 72 l 178 13 l 414 13 l 388 58 b 375 104 380 72 375 88 l 375 472 b 381 502 375 482 377 493 l 527 900 b 534 915 529 905 531 910 l 569 974 "},"ÿ":{"ha":593,"x_min":0,"x_max":0,"o":"m 569 974 l 534 915 b 527 900 531 910 529 905 l 381 502 b 375 472 377 493 375 482 l 375 104 b 388 58 375 88 380 72 l 414 13 l 178 13 l 204 58 b 217 104 212 72 217 88 l 217 472 b 211 502 217 482 215 493 l 65 900 b 58 915 63 905 61 910 l 23 974 l 260 974 l 242 944 b 235 868 228 921 226 893 l 296 703 l 296 703 l 296 703 l 357 868 b 350 944 366 893 364 921 l 332 974 "},"z":{"ha":514,"x_min":0,"x_max":0,"o":"m 491 833 b 483 797 491 820 488 808 l 181 158 l 402 158 b 444 170 417 158 431 162 l 491 198 l 491 0 l 23 0 l 23 140 b 31 175 23 152 26 164 l 332 814 l 111 814 b 70 803 97 814 82 810 l 23 775 l 23 972 l 491 972 "},"{":{"ha":389,"x_min":0,"x_max":0,"o":"m 286 691 b 216 521 286 627 261 566 l 181 486 l 216 451 b 286 281 261 406 286 345 l 286 193 b 320 159 286 174 301 159 l 366 159 l 366 -1 l 284 -1 b 126 157 197 -1 126 70 l 126 281 b 102 339 126 303 118 324 l 23 419 l 23 553 l 102 633 b 126 691 118 648 126 669 l 126 815 b 284 973 126 902 197 973 l 366 973 l 366 813 l 320 813 b 286 779 301 813 286 798 l 286 691 "},"|":{"ha":282,"x_min":0,"x_max":0,"o":"m 220 980 l 220 -8 b 232 -52 220 -24 225 -39 l 260 -98 l 23 -98 l 50 -52 b 62 -8 58 -39 62 -24 l 62 980 b 50 1024 62 996 58 1011 l 23 1070 l 260 1070 l 232 1024 b 221 980 225 1011 221 996 "},"}":{"ha":389,"x_min":0,"x_max":0,"o":"m 366 553 l 366 419 l 286 339 b 262 281 271 324 262 303 l 262 157 b 104 -1 262 70 192 -1 l 23 -1 l 23 159 l 69 159 b 103 193 87 159 103 174 l 103 281 b 173 451 103 345 128 406 l 207 486 l 173 521 b 103 691 128 566 103 627 l 103 779 b 69 813 103 798 87 813 l 23 813 l 23 973 l 104 973 b 262 815 192 973 262 902 l 262 691 b 286 633 262 669 271 648 "},"~":{"ha":613,"x_min":0,"x_max":0,"o":"m 589 594 l 589 411 b 285 407 495 358 381 357 l 253 424 b 98 421 204 449 146 448 l 23 378 l 23 561 b 327 565 118 614 231 615 l 359 549 b 514 551 408 523 466 524 "}," ":{"ha":328,"x_min":0,"x_max":0,"o":""},"¢":{"ha":443,"x_min":0,"x_max":0,"o":"m 292 418 b 331 411 305 425 321 421 l 420 322 b 269 255 378 280 324 258 l 269 158 l 174 158 l 174 269 b 61 358 130 285 91 315 b 61 615 10 435 10 538 b 174 704 91 659 130 688 l 174 814 l 269 814 l 269 719 b 420 651 324 715 378 693 l 331 563 b 292 555 321 552 305 549 b 185 522 256 575 208 564 b 185 452 174 500 174 473 b 292 418 207 410 256 399 "},"«":{"ha":747,"x_min":0,"x_max":0,"o":"m 495 486 l 723 158 l 529 158 l 301 486 l 529 814 l 723 814 m 217 486 l 446 158 l 251 158 l 23 486 l 251 814 l 446 814 "},"°":{"ha":553,"x_min":0,"x_max":0,"o":"m 276 972 b 529 719 416 972 529 859 b 276 466 529 579 416 466 b 23 719 136 466 23 579 b 276 972 23 859 136 972 m 276 625 b 370 719 328 625 370 667 b 276 813 370 771 328 813 b 183 719 225 813 183 771 b 276 625 183 667 225 625 "},"»":{"ha":747,"x_min":0,"x_max":0,"o":"m 446 486 l 218 158 l 23 158 l 251 486 l 23 814 l 217 814 m 723 486 l 495 158 l 301 158 l 529 486 l 301 814 l 495 814 "},"Ö":{"ha":514,"x_min":0,"x_max":0,"o":"m 402 972 b 491 883 451 972 491 932 l 491 89 b 402 0 491 40 451 0 l 112 0 b 23 89 63 0 23 40 l 23 883 b 112 972 23 932 63 972 l 402 972 m 332 778 b 297 814 332 798 316 814 l 217 814 b 181 778 197 814 181 798 l 181 194 b 217 158 181 174 197 158 l 297 158 b 332 194 316 158 332 174 m 330 1021 b 281 1070 303 1021 281 1043 b 330 1119 281 1097 303 1119 b 379 1070 357 1119 379 1097 b 330 1021 379 1043 357 1021 m 181 1021 b 133 1070 154 1021 133 1043 b 181 1119 133 1097 154 1119 b 230 1070 208 1119 230 1097 b 181 1021 230 1043 208 1021 "},"×":{"ha":489,"x_min":0,"x_max":0,"o":"m 356 486 l 466 377 l 354 265 l 244 374 l 135 265 l 23 377 l 132 486 l 23 595 l 135 707 l 244 598 l 354 707 l 466 595 "},"ö":{"ha":514,"x_min":0,"x_max":0,"o":"m 402 972 b 491 883 451 972 491 932 l 491 89 b 402 0 491 40 451 0 l 112 0 b 23 89 63 0 23 40 l 23 883 b 112 972 23 932 63 972 l 402 972 m 332 778 b 297 814 332 798 316 814 l 217 814 b 181 778 197 814 181 798 l 181 194 b 217 158 181 174 197 158 l 297 158 b 332 194 316 158 332 174 m 330 1021 b 281 1070 303 1021 281 1043 b 330 1119 281 1097 303 1119 b 379 1070 357 1119 379 1097 b 330 1021 379 1043 357 1021 m 181 1021 b 133 1070 154 1021 133 1043 b 181 1119 133 1097 154 1119 b 230 1070 208 1119 230 1097 b 181 1021 230 1043 208 1021 "},"÷":{"ha":613,"x_min":0,"x_max":0,"o":"m 227 203 l 227 361 l 385 361 l 385 203 m 227 611 l 227 769 l 385 769 l 385 611 m 589 565 l 589 407 l 23 407 l 23 565 "},"‘":{"ha":206,"x_min":0,"x_max":0,"o":"m 181 818 l 181 659 l 23 659 l 23 721 b 37 820 23 754 27 788 b 140 972 56 879 92 932 l 176 916 b 106 818 146 889 121 855 "},"’":{"ha":206,"x_min":0,"x_max":0,"o":"m 181 972 l 181 910 b 168 812 181 877 178 843 b 64 659 149 752 113 699 l 28 715 b 98 814 59 742 83 776 l 23 814 l 23 972 "},"“":{"ha":432,"x_min":0,"x_max":0,"o":"m 408 818 l 408 659 l 250 659 l 250 721 b 263 820 250 754 253 788 b 367 972 282 879 318 932 l 403 916 b 333 818 372 889 348 855 m 176 916 b 106 818 146 889 121 855 l 181 818 l 181 659 l 23 659 l 23 721 b 37 820 23 754 27 788 b 140 972 56 879 92 932 l 176 916 "},"”":{"ha":432,"x_min":0,"x_max":0,"o":"m 23 814 l 23 972 l 181 972 l 181 910 b 168 812 181 877 178 843 b 64 659 149 752 113 699 l 28 715 b 98 814 59 742 83 776 m 408 972 l 408 910 b 395 812 408 877 405 843 b 291 659 376 752 340 699 l 255 715 b 325 814 286 742 310 776 l 250 814 l 250 972 "},"‹":{"ha":469,"x_min":0,"x_max":0,"o":"m 217 486 l 446 158 l 251 158 l 23 486 l 251 814 l 446 814 "},"›":{"ha":469,"x_min":0,"x_max":0,"o":"m 446 486 l 218 158 l 23 158 l 251 486 l 23 814 l 217 814 "}}}
